#!OML:ASF E:\Style4\Style4.ASF
:FULLY-SPECIFIED
:DEGREES
4295
root 0.22441 17.3008 -1.08368 3.283 -1.47893 4.87852
lowerback 13.6163 2.18055 -3.92381
upperback 4.78155 2.30331 -1.55416
thorax -2.67756 1.13176 0.226394
lowerneck 2.32419 -11.0153 -7.57225
upperneck 3.30874 -15.0531 8.34952
head 2.00792 -7.55239 3.74003
rclavicle -5.96354e-015 1.93815e-014
rhumerus 16.9711 -20.0133 -49.2582
rradius 106.865
rwrist -1.22937
rhand 10.589 8.24741
rfingers 7.12502
rthumb 35.6847 -18.1459
lclavicle -5.96354e-015 1.93815e-014
lhumerus 22.8911 5.88148 42.2169
lradius 110.135
lwrist 12.2393
lhand 6.631 26.9941
lfingers 7.12502
lthumb 31.9244 54.2152
rfemur -26.2366 -0.0699904 12.8447
rtibia 46.8225
rfoot -21.5963 -17.4809
rtoes -14.8715
lfemur -23.8574 3.71143 -24.8091
ltibia 42.0739
lfoot -21.6904 10.5145
ltoes -14.4847
4296
root 0.213603 17.2463 -1.09797 3.14207 -1.07181 4.97633
lowerback 13.9227 2.17987 -4.10066
upperback 4.86761 2.26639 -1.52031
thorax -2.75814 1.11273 0.357809
lowerneck 2.43441 -11.1263 -7.66509
upperneck 3.06973 -15.2007 8.4509
head 1.9401 -7.63069 3.79656
rclavicle 3.47873e-015 2.78299e-015
rhumerus 15.886 -19.7667 -49.5798
rradius 107.759
rwrist -0.943153
rhand 10.7352 8.42388
rfingers 7.12502
rthumb 35.8233 -17.9358
lclavicle 3.47873e-015 2.78299e-015
lhumerus 21.825 5.40624 42.5328
lradius 110.914
lwrist 12.0689
lhand 6.52503 26.8571
lfingers 7.12502
lthumb 31.8235 54.0983
rfemur -26.6286 -0.428049 12.7825
rtibia 47.9349
rfoot -22.1473 -17.4508
rtoes -14.6129
lfemur -24.3637 3.64236 -24.8812
ltibia 43.1085
lfoot -21.9387 10.2438
ltoes -14.6047
4297
root 0.201548 17.1901 -1.11205 3.0101 -0.693504 5.11144
lowerback 14.1959 2.16184 -4.38916
upperback 4.95999 2.19345 -1.46744
thorax -2.8164 1.07486 0.579418
lowerneck 2.53687 -11.1986 -7.79327
upperneck 2.84848 -15.2969 8.52839
head 1.87611 -7.68361 3.85295
rclavicle 1.88348e-014 -2.40529e-014
rhumerus 14.8849 -19.4185 -49.9175
rradius 108.577
rwrist -0.69793
rhand 10.7036 8.66982
rfingers 7.12502
rthumb 35.7934 -17.6972
lclavicle 1.88348e-014 -2.40529e-014
lhumerus 20.6647 4.98144 42.8051
lradius 111.601
lwrist 11.8828
lhand 6.46809 26.5444
lfingers 7.12502
lthumb 31.7692 53.7964
rfemur -27.0561 -0.728099 12.6841
rtibia 49.0722
rfoot -22.6359 -17.3831
rtoes -13.8828
lfemur -24.8666 3.53162 -24.9865
ltibia 44.1055
lfoot -22.1766 10.0244
ltoes -14.7067
4298
root 0.188632 17.1386 -1.12178 2.85061 -0.330237 5.24602
lowerback 14.4136 2.18633 -4.61912
upperback 5.09349 2.18659 -1.45944
thorax -2.79978 1.06863 0.713338
lowerneck 2.68778 -11.3217 -7.81598
upperneck 2.53289 -15.4582 8.64131
head 1.77226 -7.76946 3.90635
rclavicle -2.57426e-014 2.56432e-014
rhumerus 13.764 -19.1322 -50.191
rradius 109.395
rwrist -0.68245
rhand 10.7867 8.76248
rfingers 7.12502
rthumb 35.8721 -17.5854
lclavicle -2.57426e-014 2.56432e-014
lhumerus 19.6577 4.51336 43.0204
lradius 112.289
lwrist 11.6623
lhand 6.68914 26.284
lfingers 7.12502
lthumb 31.9797 53.494
rfemur -27.4012 -1.02323 12.6032
rtibia 50.1513
rfoot -23.0168 -17.3629
rtoes -13.2128
lfemur -25.2882 3.46699 -25.0759
ltibia 45.0454
lfoot -22.5217 9.59052
ltoes -14.132
4299
root 0.177489 17.0895 -1.12813 2.71027 -0.0436017 5.34451
lowerback 14.569 2.26669 -4.70942
upperback 5.23027 2.27345 -1.51652
thorax -2.74335 1.10917 0.687018
lowerneck 2.82156 -11.4668 -7.7449
upperneck 2.22749 -15.6485 8.82691
head 1.67658 -7.86875 3.96584
rclavicle 1.37658e-014 8.15017e-015
rhumerus 12.604 -18.9993 -50.4787
rradius 110.028
rwrist -0.673163
rhand 10.968 8.85674
rfingers 7.12502
rthumb 36.0439 -17.449
lclavicle 1.37658e-014 8.15017e-015
lhumerus 18.8576 3.95814 43.2113
lradius 112.945
lwrist 11.5489
lhand 6.89729 26.2076
lfingers 7.12502
lthumb 32.1779 53.3777
rfemur -27.7224 -1.32223 12.5519
rtibia 51.1205
rfoot -23.4006 -17.4933
rtoes -13.5694
lfemur -25.6777 3.54123 -25.1388
ltibia 45.9194
lfoot -22.8036 9.25424
ltoes -14.2078
4300
root 0.168758 17.0418 -1.13371 2.60145 0.206459 5.40619
lowerback 14.7174 2.33623 -4.7296
upperback 5.34264 2.35579 -1.55555
thorax -2.707 1.14837 0.640561
lowerneck 2.80628 -11.5955 -7.73567
upperneck 2.1371 -15.8178 8.91754
head 1.67317 -7.9535 3.98791
rclavicle 4.32357e-015 6.16232e-015
rhumerus 11.5599 -18.9237 -50.8093
rradius 110.569
rwrist -0.587459
rhand 11.4173 9.04402
rfingers 7.12502
rthumb 36.4694 -17.1558
lclavicle 4.32357e-015 6.16232e-015
lhumerus 18.0927 3.42573 43.4667
lradius 113.556
lwrist 11.381
lhand 7.23145 26.1485
lfingers 7.12502
lthumb 32.496 53.2537
rfemur -28.0485 -1.6117 12.5096
rtibia 51.9683
rfoot -23.9608 -17.6627
rtoes -13.8846
lfemur -26.0793 3.71537 -25.1749
ltibia 46.7523
lfoot -22.9631 8.96141
ltoes -14.74
4301
root 0.159179 16.9984 -1.14033 2.44701 0.474419 5.43838
lowerback 14.9064 2.38525 -4.76392
upperback 5.47851 2.40914 -1.54784
thorax -2.66842 1.17245 0.65484
lowerneck 2.75277 -11.7126 -7.78383
upperneck 2.0862 -15.9718 8.97055
head 1.68986 -8.02991 4.00369
rclavicle -1.11816e-014 1.49089e-014
rhumerus 10.6422 -18.8366 -51.089
rradius 111.169
rwrist -0.73111
rhand 12.008 9.00816
rfingers 7.12502
rthumb 37.0283 -17.049
lclavicle -1.11816e-014 1.49089e-014
lhumerus 17.3223 2.96268 43.7538
lradius 114.075
lwrist 11.2015
lhand 7.58463 26.0729
lfingers 7.12502
lthumb 32.832 53.1084
rfemur -28.2835 -1.8651 12.5109
rtibia 52.742
rfoot -24.3524 -17.8565
rtoes -14.1499
lfemur -26.4187 3.90594 -25.1766
ltibia 47.549
lfoot -23.1013 8.71108
ltoes -15.5638
4302
root 0.149307 16.9537 -1.14788 2.28453 0.720047 5.47533
lowerback 15.0855 2.44308 -4.85305
upperback 5.62037 2.46793 -1.51476
thorax -2.62124 1.19828 0.72578
lowerneck 2.75546 -11.8342 -7.87157
upperneck 1.95964 -16.1326 9.05351
head 1.6791 -8.11197 4.0422
rclavicle 2.35063e-014 -1.61016e-014
rhumerus 9.80328 -18.682 -51.356
rradius 111.677
rwrist -0.889199
rhand 12.2582 9.04544
rfingers 7.12502
rthumb 37.2649 -16.9501
lclavicle 2.35063e-014 -1.61016e-014
lhumerus 16.5725 2.48909 44.0011
lradius 114.513
lwrist 11.0815
lhand 7.61747 26.0177
lfingers 7.12502
lthumb 32.8632 53.0467
rfemur -28.5025 -2.08773 12.5137
rtibia 53.4793
rfoot -24.5923 -17.9493
rtoes -14.3087
lfemur -26.7279 4.01253 -25.1772
ltibia 48.3137
lfoot -23.2905 8.31827
ltoes -14.906
4303
root 0.142598 16.91 -1.15396 2.10677 0.952655 5.44387
lowerback 15.2569 2.50243 -4.79215
upperback 5.75675 2.54946 -1.5043
thorax -2.57046 1.23683 0.685021
lowerneck 2.83172 -11.9694 -7.79789
upperneck 1.76616 -16.3048 9.04722
head 1.60988 -8.20064 4.0305
rclavicle -3.19049e-014 3.67752e-014
rhumerus 8.86688 -18.521 -51.6151
rradius 112.091
rwrist -0.895842
rhand 12.2364 9.1623
rfingers 7.12502
rthumb 37.2443 -16.8386
lclavicle -3.19049e-014 3.67752e-014
lhumerus 15.9253 2.00814 44.2085
lradius 114.98
lwrist 11.0949
lhand 7.7867 26.1852
lfingers 7.12502
lthumb 33.0242 53.1803
rfemur -28.6839 -2.30113 12.5734
rtibia 54.1923
rfoot -24.8575 -17.9337
rtoes -14.2324
lfemur -26.9871 4.14686 -25.1083
ltibia 49.0485
lfoot -23.4673 7.87255
ltoes -14.0191
4304
root 0.136442 16.8704 -1.16049 1.91038 1.17572 5.34755
lowerback 15.4542 2.55502 -4.63045
upperback 5.8834 2.63489 -1.4896
thorax -2.53993 1.27879 0.590119
lowerneck 2.96138 -12.0669 -7.751
upperneck 1.54145 -16.4306 9.11016
head 1.52634 -8.26799 4.05445
rclavicle -3.37934e-015 2.78299e-015
rhumerus 7.96671 -18.3752 -51.8441
rradius 112.43
rwrist -0.857271
rhand 12.127 9.23396
rfingers 7.12502
rthumb 37.1409 -16.794
lclavicle -3.37934e-015 2.78299e-015
lhumerus 15.3056 1.52221 44.426
lradius 115.386
lwrist 10.98
lhand 8.02548 26.1985
lfingers 7.12502
lthumb 33.2513 53.1453
rfemur -28.8089 -2.50785 12.7055
rtibia 54.8729
rfoot -25.1374 -17.95
rtoes -14.1058
lfemur -27.2154 4.375 -24.9515
ltibia 49.763
lfoot -23.7102 7.24773
ltoes -12.8521
